<?xml version="1.0" encoding="UTF-8" standalone="no"?>
<!DOCTYPE svg PUBLIC "-//W3C//DTD SVG 1.1//EN"
 "http://www.w3.org/Graphics/SVG/1.1/DTD/svg11.dtd">
<!-- Generated by graphviz version 8.0.3 (20230416.2022)
 -->
<!-- Pages: 1 -->
<svg width="1387pt" height="2705pt"
 viewBox="0.00 0.00 1387.00 2705.08" xmlns="http://www.w3.org/2000/svg" xmlns:xlink="http://www.w3.org/1999/xlink">
<g id="graph0" class="graph" transform="scale(1 1) rotate(0) translate(4 2701.08)">
<polygon fill="white" stroke="none" points="-4,4 -4,-2701.08 1383,-2701.08 1383,4 -4,4"/>
<text text-anchor="middle" x="689.5" y="-7.8" font-family="Times New Roman,serif" font-size="14.00">5,5</text>
<!-- 1 -->
<g id="node1" class="node">
<title>1</title>
<ellipse fill="none" stroke="black" cx="374" cy="-2484.01" rx="39.7" ry="58.88"/>
<text text-anchor="middle" x="374" y="-2510.31" font-family="Times New Roman,serif" font-size="14.00">B</text>
<text text-anchor="middle" x="374" y="-2495.31" font-family="Times New Roman,serif" font-size="14.00">internal</text>
<text text-anchor="middle" x="374" y="-2480.31" font-family="Times New Roman,serif" font-size="14.00">4,5</text>
<text text-anchor="middle" x="374" y="-2465.31" font-family="Times New Roman,serif" font-size="14.00">0,0</text>
<text text-anchor="middle" x="374" y="-2450.31" font-family="Times New Roman,serif" font-size="14.00">&#45;1</text>
</g>
<!-- 6 -->
<g id="node2" class="node">
<title>6</title>
<ellipse fill="none" stroke="black" cx="459" cy="-2329.63" rx="39.7" ry="58.88"/>
<text text-anchor="middle" x="459" y="-2355.93" font-family="Times New Roman,serif" font-size="14.00">G</text>
<text text-anchor="middle" x="459" y="-2340.93" font-family="Times New Roman,serif" font-size="14.00">internal</text>
<text text-anchor="middle" x="459" y="-2325.93" font-family="Times New Roman,serif" font-size="14.00">3,4</text>
<text text-anchor="middle" x="459" y="-2310.93" font-family="Times New Roman,serif" font-size="14.00">&#45;1</text>
<text text-anchor="middle" x="459" y="-2295.93" font-family="Times New Roman,serif" font-size="14.00">4,5</text>
</g>
<!-- 1&#45;&gt;6 -->
<g id="edge8" class="edge">
<title>1&#45;&gt;6</title>
<path fill="none" stroke="black" d="M399.04,-2438.11C408.3,-2421.52 418.89,-2402.53 428.57,-2385.17"/>
<polygon fill="black" stroke="black" points="432.03,-2387.16 433.84,-2376.73 425.91,-2383.75 432.03,-2387.16"/>
</g>
<!-- 5 -->
<g id="node3" class="node">
<title>5</title>
<ellipse fill="none" stroke="black" cx="379" cy="-2161.25" rx="39.7" ry="58.88"/>
<text text-anchor="middle" x="379" y="-2187.55" font-family="Times New Roman,serif" font-size="14.00">F</text>
<text text-anchor="middle" x="379" y="-2172.55" font-family="Times New Roman,serif" font-size="14.00">internal</text>
<text text-anchor="middle" x="379" y="-2157.55" font-family="Times New Roman,serif" font-size="14.00">3,4</text>
<text text-anchor="middle" x="379" y="-2142.55" font-family="Times New Roman,serif" font-size="14.00">0,0</text>
<text text-anchor="middle" x="379" y="-2127.55" font-family="Times New Roman,serif" font-size="14.00">&#45;1</text>
</g>
<!-- 1&#45;&gt;5 -->
<g id="edge7" class="edge">
<title>1&#45;&gt;5</title>
<path fill="none" stroke="black" d="M374.91,-2424.92C375.75,-2370.48 377.02,-2289.04 377.92,-2231.3"/>
<polygon fill="black" stroke="black" points="381.44,-2231.5 378.09,-2221.44 374.44,-2231.39 381.44,-2231.5"/>
</g>
<!-- 2 -->
<g id="node5" class="node">
<title>2</title>
<ellipse fill="none" stroke="black" cx="974" cy="-1164.97" rx="27" ry="58.88"/>
<text text-anchor="middle" x="974" y="-1191.27" font-family="Times New Roman,serif" font-size="14.00">C</text>
<text text-anchor="middle" x="974" y="-1176.27" font-family="Times New Roman,serif" font-size="14.00">leaf</text>
<text text-anchor="middle" x="974" y="-1161.27" font-family="Times New Roman,serif" font-size="14.00">4,5</text>
<text text-anchor="middle" x="974" y="-1146.27" font-family="Times New Roman,serif" font-size="14.00">&#45;1</text>
<text text-anchor="middle" x="974" y="-1131.27" font-family="Times New Roman,serif" font-size="14.00">&#45;2</text>
</g>
<!-- 1&#45;&gt;2 -->
<g id="edge30" class="edge">
<title>1&#45;&gt;2</title>
<path fill="none" stroke="blue" stroke-dasharray="1,5" d="M414.1,-2483.46C538.23,-2484.08 913.44,-2479.78 1006,-2407.32 1034.69,-2384.85 1035,-2367.07 1035,-2330.63 1035,-2330.63 1035,-2330.63 1035,-1332.35 1035,-1285.12 1013.07,-1234.71 995.51,-1201.92"/>
<text text-anchor="middle" x="1038.5" y="-1834.79" font-family="Times New Roman,serif" font-size="14.00">s</text>
</g>
<!-- 3 -->
<g id="node6" class="node">
<title>3</title>
<ellipse fill="none" stroke="black" cx="226" cy="-1333.35" rx="27" ry="58.88"/>
<text text-anchor="middle" x="226" y="-1359.65" font-family="Times New Roman,serif" font-size="14.00">D</text>
<text text-anchor="middle" x="226" y="-1344.65" font-family="Times New Roman,serif" font-size="14.00">leaf</text>
<text text-anchor="middle" x="226" y="-1329.65" font-family="Times New Roman,serif" font-size="14.00">4,5</text>
<text text-anchor="middle" x="226" y="-1314.65" font-family="Times New Roman,serif" font-size="14.00">&#45;2</text>
<text text-anchor="middle" x="226" y="-1299.65" font-family="Times New Roman,serif" font-size="14.00">0,0</text>
</g>
<!-- 1&#45;&gt;3 -->
<g id="edge31" class="edge">
<title>1&#45;&gt;3</title>
<path fill="none" stroke="blue" stroke-dasharray="1,5" d="M334.12,-2480.72C252.92,-2473.7 76,-2445.24 76,-2330.63 76,-2330.63 76,-2330.63 76,-1584.92 76,-1488.84 158.19,-1397.7 200.89,-1356.84"/>
<text text-anchor="middle" x="79.5" y="-1918.98" font-family="Times New Roman,serif" font-size="14.00">s</text>
</g>
<!-- 4 -->
<g id="node8" class="node">
<title>4</title>
<ellipse fill="none" stroke="black" cx="275" cy="-1501.73" rx="27" ry="58.88"/>
<text text-anchor="middle" x="275" y="-1528.03" font-family="Times New Roman,serif" font-size="14.00">E</text>
<text text-anchor="middle" x="275" y="-1513.03" font-family="Times New Roman,serif" font-size="14.00">leaf</text>
<text text-anchor="middle" x="275" y="-1498.03" font-family="Times New Roman,serif" font-size="14.00">3,4</text>
<text text-anchor="middle" x="275" y="-1483.03" font-family="Times New Roman,serif" font-size="14.00">4,5</text>
<text text-anchor="middle" x="275" y="-1468.03" font-family="Times New Roman,serif" font-size="14.00">0,0</text>
</g>
<!-- 1&#45;&gt;4 -->
<g id="edge6" class="edge">
<title>1&#45;&gt;4</title>
<path fill="none" stroke="black" d="M334.23,-2478.17C261.39,-2466.84 114,-2431.47 114,-2330.63 114,-2330.63 114,-2330.63 114,-1921.68 114,-1781.48 107.19,-1736.26 171,-1611.42 187.73,-1578.69 217.49,-1549.1 240.9,-1529.09"/>
<polygon fill="black" stroke="black" points="242.77,-1531.26 248.2,-1522.16 238.28,-1525.88 242.77,-1531.26"/>
</g>
<!-- 6&#45;&gt;5 -->
<g id="edge34" class="edge">
<title>6&#45;&gt;5</title>
<path fill="none" stroke="blue" stroke-dasharray="1,5" d="M436.08,-2280.95C425.36,-2258.67 412.64,-2232.21 401.93,-2209.93"/>
<text text-anchor="middle" x="424.5" y="-2241.74" font-family="Times New Roman,serif" font-size="14.00">s</text>
</g>
<!-- 6&#45;&gt;2 -->
<g id="edge32" class="edge">
<title>6&#45;&gt;2</title>
<path fill="none" stroke="blue" stroke-dasharray="1,5" d="M498.91,-2326.86C593.59,-2321.87 828.04,-2304.46 884,-2252.94 914.67,-2224.69 908,-2203.94 908,-2162.25 908,-2162.25 908,-2162.25 908,-1332.35 908,-1283.72 932.67,-1232.36 951.84,-1199.79"/>
<text text-anchor="middle" x="911.5" y="-1750.6" font-family="Times New Roman,serif" font-size="14.00">a</text>
</g>
<!-- 6&#45;&gt;4 -->
<g id="edge35" class="edge">
<title>6&#45;&gt;4</title>
<path fill="none" stroke="blue" stroke-dasharray="1,5" d="M418.9,-2328.68C359.89,-2326.57 249.57,-2314.04 184,-2252.94 152.73,-2223.8 152,-2204.99 152,-2162.25 152,-2162.25 152,-2162.25 152,-1921.68 152,-1844.16 181.79,-1648.92 214,-1578.42 222.77,-1559.23 237.51,-1540.73 250.31,-1526.83"/>
<text text-anchor="middle" x="155.5" y="-1918.98" font-family="Times New Roman,serif" font-size="14.00">s</text>
</g>
<!-- 9 -->
<g id="node10" class="node">
<title>9</title>
<ellipse fill="none" stroke="black" cx="474" cy="-2006.87" rx="39.7" ry="58.88"/>
<text text-anchor="middle" x="474" y="-2033.17" font-family="Times New Roman,serif" font-size="14.00">J</text>
<text text-anchor="middle" x="474" y="-2018.17" font-family="Times New Roman,serif" font-size="14.00">internal</text>
<text text-anchor="middle" x="474" y="-2003.17" font-family="Times New Roman,serif" font-size="14.00">2,4</text>
<text text-anchor="middle" x="474" y="-1988.17" font-family="Times New Roman,serif" font-size="14.00">&#45;1</text>
<text text-anchor="middle" x="474" y="-1973.17" font-family="Times New Roman,serif" font-size="14.00">3,4</text>
</g>
<!-- 6&#45;&gt;9 -->
<g id="edge33" class="edge">
<title>6&#45;&gt;9</title>
<path fill="none" stroke="blue" stroke-dasharray="1,5" d="M470.46,-2272.98C471.5,-2266.25 472.39,-2259.46 473,-2252.94 478.98,-2189.18 478.27,-2115.69 476.68,-2065.94"/>
<text text-anchor="middle" x="480.5" y="-2157.55" font-family="Times New Roman,serif" font-size="14.00">a</text>
</g>
<!-- 10 -->
<g id="node11" class="node">
<title>10</title>
<ellipse fill="none" stroke="black" cx="920" cy="-323.07" rx="39.7" ry="58.88"/>
<text text-anchor="middle" x="920" y="-349.37" font-family="Times New Roman,serif" font-size="14.00">K</text>
<text text-anchor="middle" x="920" y="-334.37" font-family="Times New Roman,serif" font-size="14.00">internal</text>
<text text-anchor="middle" x="920" y="-319.37" font-family="Times New Roman,serif" font-size="14.00">2,4</text>
<text text-anchor="middle" x="920" y="-304.37" font-family="Times New Roman,serif" font-size="14.00">&#45;1</text>
<text text-anchor="middle" x="920" y="-289.37" font-family="Times New Roman,serif" font-size="14.00">4,5</text>
</g>
<!-- 6&#45;&gt;10 -->
<g id="edge4" class="edge">
<title>6&#45;&gt;10</title>
<path fill="none" stroke="black" d="M498.99,-2326.35C595.81,-2320.13 839.57,-2300.09 904,-2252.94 915.91,-2244.22 946,-2172.02 946,-2162.25 946,-2162.25 946,-2162.25 946,-1921.68 946,-1440.48 1357.98,-1384.43 1318,-904.9 1305.33,-752.91 1337.84,-694.21 1252,-568.14 1192.15,-480.24 1171.55,-457.12 1082,-399.76 1045.87,-376.62 1001.54,-356.4 968.39,-342.7"/>
<polygon fill="black" stroke="black" points="970.06,-339.2 959.48,-338.66 967.42,-345.68 970.06,-339.2"/>
</g>
<!-- 11 -->
<g id="node12" class="node">
<title>11</title>
<ellipse fill="none" stroke="black" cx="621" cy="-1838.49" rx="27" ry="58.88"/>
<text text-anchor="middle" x="621" y="-1864.79" font-family="Times New Roman,serif" font-size="14.00">L</text>
<text text-anchor="middle" x="621" y="-1849.79" font-family="Times New Roman,serif" font-size="14.00">leaf</text>
<text text-anchor="middle" x="621" y="-1834.79" font-family="Times New Roman,serif" font-size="14.00">2,4</text>
<text text-anchor="middle" x="621" y="-1819.79" font-family="Times New Roman,serif" font-size="14.00">3,4</text>
<text text-anchor="middle" x="621" y="-1804.79" font-family="Times New Roman,serif" font-size="14.00">4,5</text>
</g>
<!-- 6&#45;&gt;11 -->
<g id="edge5" class="edge">
<title>6&#45;&gt;11</title>
<path fill="none" stroke="black" d="M478.11,-2277.84C481.14,-2269.54 484.2,-2261.01 487,-2252.94 530.54,-2127.4 577.59,-1978.94 602.71,-1898.49"/>
<polygon fill="black" stroke="black" points="606.32,-1899.67 605.96,-1889.08 599.64,-1897.58 606.32,-1899.67"/>
</g>
<!-- 5&#45;&gt;6 -->
<g id="edge37" class="edge">
<title>5&#45;&gt;6</title>
<path fill="none" stroke="blue" stroke-dasharray="1,5" d="M394.73,-2215.4C399.11,-2227.95 404.26,-2241.11 410,-2252.94 415.81,-2264.91 423.17,-2277.27 430.4,-2288.45"/>
<text text-anchor="middle" x="413.5" y="-2241.74" font-family="Times New Roman,serif" font-size="14.00">s</text>
</g>
<!-- 7 -->
<g id="node7" class="node">
<title>7</title>
<ellipse fill="none" stroke="black" cx="476" cy="-1670.11" rx="27" ry="58.88"/>
<text text-anchor="middle" x="476" y="-1696.41" font-family="Times New Roman,serif" font-size="14.00">H</text>
<text text-anchor="middle" x="476" y="-1681.41" font-family="Times New Roman,serif" font-size="14.00">leaf</text>
<text text-anchor="middle" x="476" y="-1666.41" font-family="Times New Roman,serif" font-size="14.00">2,4</text>
<text text-anchor="middle" x="476" y="-1651.41" font-family="Times New Roman,serif" font-size="14.00">3,4</text>
<text text-anchor="middle" x="476" y="-1636.41" font-family="Times New Roman,serif" font-size="14.00">0,0</text>
</g>
<!-- 5&#45;&gt;7 -->
<g id="edge13" class="edge">
<title>5&#45;&gt;7</title>
<path fill="none" stroke="black" d="M385.42,-2103.01C391.43,-2053.15 401.36,-1979.05 414,-1915.18 426.53,-1851.85 445.23,-1780.37 458.82,-1731.22"/>
<polygon fill="black" stroke="black" points="462.42,-1732.34 461.72,-1721.77 455.67,-1730.47 462.42,-1732.34"/>
</g>
<!-- 5&#45;&gt;4 -->
<g id="edge36" class="edge">
<title>5&#45;&gt;4</title>
<path fill="none" stroke="blue" stroke-dasharray="1,5" d="M344.04,-2132.14C313.49,-2104.19 274,-2058.31 274,-2007.87 274,-2007.87 274,-2007.87 274,-1669.11 274,-1633.14 274.24,-1592.81 274.48,-1560.86"/>
<text text-anchor="middle" x="277.5" y="-1834.79" font-family="Times New Roman,serif" font-size="14.00">s</text>
</g>
<!-- 8 -->
<g id="node9" class="node">
<title>8</title>
<ellipse fill="none" stroke="black" cx="554" cy="-154.69" rx="39.7" ry="58.88"/>
<text text-anchor="middle" x="554" y="-180.99" font-family="Times New Roman,serif" font-size="14.00">I</text>
<text text-anchor="middle" x="554" y="-165.99" font-family="Times New Roman,serif" font-size="14.00">internal</text>
<text text-anchor="middle" x="554" y="-150.99" font-family="Times New Roman,serif" font-size="14.00">2,4</text>
<text text-anchor="middle" x="554" y="-135.99" font-family="Times New Roman,serif" font-size="14.00">0,0</text>
<text text-anchor="middle" x="554" y="-120.99" font-family="Times New Roman,serif" font-size="14.00">&#45;1</text>
</g>
<!-- 5&#45;&gt;8 -->
<g id="edge14" class="edge">
<title>5&#45;&gt;8</title>
<path fill="none" stroke="black" d="M342.33,-2137.95C317.93,-2121.13 287.28,-2095.81 270,-2065.56 194.54,-1933.4 225.88,-1879.93 208,-1728.8 149.13,-1231.08 98.56,-1089.32 212,-601.14 249.21,-441.01 254.28,-385.9 365,-264.38 403.86,-221.73 463.45,-191.33 505.31,-173.72"/>
<polygon fill="black" stroke="black" points="506.36,-176.66 514.28,-169.63 503.7,-170.19 506.36,-176.66"/>
</g>
<!-- 5&#45;&gt;9 -->
<g id="edge15" class="edge">
<title>5&#45;&gt;9</title>
<path fill="none" stroke="black" d="M405.72,-2117.39C416.8,-2099.62 429.75,-2078.84 441.39,-2060.18"/>
<polygon fill="black" stroke="black" points="444.84,-2062.26 447.16,-2051.92 438.9,-2058.56 444.84,-2062.26"/>
</g>
<!-- 0 -->
<g id="node4" class="node">
<title>0</title>
<ellipse fill="none" stroke="black" cx="374" cy="-2638.39" rx="39.7" ry="58.88"/>
<text text-anchor="middle" x="374" y="-2664.69" font-family="Times New Roman,serif" font-size="14.00">A</text>
<text text-anchor="middle" x="374" y="-2649.69" font-family="Times New Roman,serif" font-size="14.00">internal</text>
<text text-anchor="middle" x="374" y="-2634.69" font-family="Times New Roman,serif" font-size="14.00">0,0</text>
<text text-anchor="middle" x="374" y="-2619.69" font-family="Times New Roman,serif" font-size="14.00">&#45;1</text>
<text text-anchor="middle" x="374" y="-2604.69" font-family="Times New Roman,serif" font-size="14.00">&#45;2</text>
</g>
<!-- 0&#45;&gt;1 -->
<g id="edge1" class="edge">
<title>0&#45;&gt;1</title>
<path fill="none" stroke="black" d="M374,-2579.34C374,-2571.1 374,-2562.55 374,-2554.12"/>
<polygon fill="black" stroke="black" points="377.5,-2554.14 374,-2544.14 370.5,-2554.14 377.5,-2554.14"/>
</g>
<!-- 0&#45;&gt;2 -->
<g id="edge2" class="edge">
<title>0&#45;&gt;2</title>
<path fill="none" stroke="black" d="M414.09,-2637.27C562.62,-2635.8 1073,-2620.85 1073,-2485.01 1073,-2485.01 1073,-2485.01 1073,-1332.35 1073,-1279.28 1035.34,-1228.38 1006.48,-1197.16"/>
<polygon fill="black" stroke="black" points="1009.41,-1195.12 999.98,-1190.28 1004.33,-1199.94 1009.41,-1195.12"/>
</g>
<!-- 0&#45;&gt;3 -->
<g id="edge3" class="edge">
<title>0&#45;&gt;3</title>
<path fill="none" stroke="black" d="M334.33,-2630C238.08,-2610.95 0,-2556.61 0,-2485.01 0,-2485.01 0,-2485.01 0,-1500.73 0,-1408.38 123.88,-1361.58 188.21,-1343.5"/>
<polygon fill="black" stroke="black" points="189,-1346.64 197.74,-1340.64 187.17,-1339.88 189,-1346.64"/>
</g>
<!-- 2&#45;&gt;1 -->
<g id="edge41" class="edge">
<title>2&#45;&gt;1</title>
<path fill="none" stroke="blue" stroke-dasharray="1,5" d="M982.95,-1220.89C987.46,-1253.24 992,-1295.01 992,-1332.35 992,-2330.63 992,-2330.63 992,-2330.63 992,-2450.11 551.02,-2476.46 414.07,-2481.77"/>
<text text-anchor="middle" x="995.5" y="-1834.79" font-family="Times New Roman,serif" font-size="14.00">s</text>
</g>
<!-- 2&#45;&gt;6 -->
<g id="edge38" class="edge">
<title>2&#45;&gt;6</title>
<path fill="none" stroke="blue" stroke-dasharray="1,5" d="M948.82,-1188C918.05,-1217.51 870,-1273.08 870,-1332.35 870,-2162.25 870,-2162.25 870,-2162.25 870,-2241.82 601.93,-2301.39 498.78,-2321.36"/>
<text text-anchor="middle" x="873.5" y="-1750.6" font-family="Times New Roman,serif" font-size="14.00">a</text>
</g>
<!-- 2&#45;&gt;3 -->
<g id="edge42" class="edge">
<title>2&#45;&gt;3</title>
<path fill="none" stroke="blue" stroke-dasharray="1,5" d="M947.53,-1180.09C908.35,-1200.33 832.11,-1237.31 763,-1256.66 572.6,-1309.96 333.22,-1326.75 253.34,-1331.06"/>
<text text-anchor="middle" x="807.5" y="-1245.46" font-family="Times New Roman,serif" font-size="14.00">s</text>
</g>
<!-- 2&#45;&gt;10 -->
<g id="edge39" class="edge">
<title>2&#45;&gt;10</title>
<path fill="none" stroke="blue" stroke-dasharray="1,5" d="M973.55,-1105.62C972.33,-981.64 967.94,-682.82 953,-432.76 952.12,-418.06 953.41,-414.09 950,-399.76 947.87,-390.82 944.89,-381.54 941.62,-372.67"/>
<text text-anchor="middle" x="969.5" y="-740.32" font-family="Times New Roman,serif" font-size="14.00">a</text>
</g>
<!-- 15 -->
<g id="node16" class="node">
<title>15</title>
<ellipse fill="none" stroke="black" cx="1138" cy="-996.59" rx="27" ry="58.88"/>
<text text-anchor="middle" x="1138" y="-1022.89" font-family="Times New Roman,serif" font-size="14.00">P</text>
<text text-anchor="middle" x="1138" y="-1007.89" font-family="Times New Roman,serif" font-size="14.00">leaf</text>
<text text-anchor="middle" x="1138" y="-992.89" font-family="Times New Roman,serif" font-size="14.00">1,7</text>
<text text-anchor="middle" x="1138" y="-977.89" font-family="Times New Roman,serif" font-size="14.00">&#45;1</text>
<text text-anchor="middle" x="1138" y="-962.89" font-family="Times New Roman,serif" font-size="14.00">4,5</text>
</g>
<!-- 2&#45;&gt;15 -->
<g id="edge40" class="edge">
<title>2&#45;&gt;15</title>
<path fill="none" stroke="blue" stroke-dasharray="1,5" d="M998.55,-1139.06C1029.56,-1107.6 1082.59,-1053.8 1113.55,-1022.4"/>
<text text-anchor="middle" x="1063.5" y="-1077.08" font-family="Times New Roman,serif" font-size="14.00">a</text>
</g>
<!-- &#45;1 -->
<g id="node18" class="node">
<title>&#45;1</title>
<ellipse fill="none" stroke="black" cx="749" cy="-41" rx="27" ry="18"/>
<text text-anchor="middle" x="749" y="-37.3" font-family="Times New Roman,serif" font-size="14.00">&#45;1</text>
</g>
<!-- 2&#45;&gt;&#45;1 -->
<g id="edge9" class="edge">
<title>2&#45;&gt;&#45;1</title>
<path fill="none" stroke="black" d="M1000.71,-1154.14C1041.52,-1138.15 1120.29,-1103.41 1174,-1055.28 1346.34,-900.84 1379,-808.06 1379,-576.64 1379,-576.64 1379,-576.64 1379,-153.69 1379,-125.92 1376.29,-113.83 1355,-96 1324.99,-70.87 1307.75,-82.55 1269,-77 1089.85,-51.33 873.2,-44.41 787.02,-42.61"/>
<polygon fill="black" stroke="black" points="787.28,-39.09 777.22,-42.39 787.15,-46.09 787.28,-39.09"/>
</g>
<!-- 3&#45;&gt;1 -->
<g id="edge45" class="edge">
<title>3&#45;&gt;1</title>
<path fill="none" stroke="blue" stroke-dasharray="1,5" d="M199.06,-1343.71C147.08,-1363.69 38,-1415.74 38,-1500.73 38,-2330.63 38,-2330.63 38,-2330.63 38,-2459.37 245.13,-2479.88 334.14,-2482.76"/>
<text text-anchor="middle" x="41.5" y="-1918.98" font-family="Times New Roman,serif" font-size="14.00">s</text>
</g>
<!-- 3&#45;&gt;2 -->
<g id="edge44" class="edge">
<title>3&#45;&gt;2</title>
<path fill="none" stroke="blue" stroke-dasharray="1,5" d="M253.06,-1326.33C369.88,-1300.34 830.23,-1197.95 946.97,-1171.98"/>
<text text-anchor="middle" x="625.5" y="-1245.46" font-family="Times New Roman,serif" font-size="14.00">s</text>
</g>
<!-- 3&#45;&gt;4 -->
<g id="edge43" class="edge">
<title>3&#45;&gt;4</title>
<path fill="none" stroke="blue" stroke-dasharray="1,5" d="M240.5,-1383.59C246.83,-1405.09 254.24,-1430.24 260.56,-1451.71"/>
<text text-anchor="middle" x="255.5" y="-1413.84" font-family="Times New Roman,serif" font-size="14.00">a</text>
</g>
<!-- 3&#45;&gt;&#45;1 -->
<g id="edge10" class="edge">
<title>3&#45;&gt;&#45;1</title>
<path fill="none" stroke="black" d="M226,-1274.21C226,-1242.27 226,-1201.93 226,-1165.97 226,-1165.97 226,-1165.97 226,-153.69 226,-109.86 249.19,-97.37 288,-77 325.03,-57.56 607.37,-46.57 711.01,-43.16"/>
<polygon fill="black" stroke="black" points="711.01,-46.63 720.89,-42.81 710.78,-39.64 711.01,-46.63"/>
</g>
<!-- 7&#45;&gt;4 -->
<g id="edge46" class="edge">
<title>7&#45;&gt;4</title>
<path fill="none" stroke="blue" stroke-dasharray="1,5" d="M450.54,-1648.04C411.88,-1616.03 338.79,-1555.53 300.25,-1523.63"/>
<text text-anchor="middle" x="384.5" y="-1582.22" font-family="Times New Roman,serif" font-size="14.00">a</text>
</g>
<!-- 7&#45;&gt;8 -->
<g id="edge49" class="edge">
<title>7&#45;&gt;8</title>
<path fill="none" stroke="blue" stroke-dasharray="1,5" d="M478.99,-1611.17C491.37,-1370.84 538.64,-453.79 551.02,-213.57"/>
<text text-anchor="middle" x="518.5" y="-908.7" font-family="Times New Roman,serif" font-size="14.00">s</text>
</g>
<!-- 7&#45;&gt;9 -->
<g id="edge50" class="edge">
<title>7&#45;&gt;9</title>
<path fill="none" stroke="blue" stroke-dasharray="1,5" d="M483.05,-1727.3C488.59,-1779.85 494.39,-1860.45 488,-1930.18 487.4,-1936.7 486.52,-1943.5 485.48,-1950.22"/>
<text text-anchor="middle" x="493.5" y="-1834.79" font-family="Times New Roman,serif" font-size="14.00">s</text>
</g>
<!-- 7&#45;&gt;11 -->
<g id="edge47" class="edge">
<title>7&#45;&gt;11</title>
<path fill="none" stroke="blue" stroke-dasharray="1,5" d="M498.8,-1703.04C505.15,-1711.56 512.18,-1720.66 519,-1728.8 544.09,-1758.76 575.07,-1791.19 596.26,-1812.75"/>
<text text-anchor="middle" x="548.5" y="-1750.6" font-family="Times New Roman,serif" font-size="14.00">a</text>
</g>
<!-- 12 -->
<g id="node13" class="node">
<title>12</title>
<ellipse fill="none" stroke="black" cx="896" cy="-659.83" rx="27" ry="58.88"/>
<text text-anchor="middle" x="896" y="-686.13" font-family="Times New Roman,serif" font-size="14.00">M</text>
<text text-anchor="middle" x="896" y="-671.13" font-family="Times New Roman,serif" font-size="14.00">leaf</text>
<text text-anchor="middle" x="896" y="-656.13" font-family="Times New Roman,serif" font-size="14.00">1,7</text>
<text text-anchor="middle" x="896" y="-641.13" font-family="Times New Roman,serif" font-size="14.00">2,4</text>
<text text-anchor="middle" x="896" y="-626.13" font-family="Times New Roman,serif" font-size="14.00">0,0</text>
</g>
<!-- 7&#45;&gt;12 -->
<g id="edge48" class="edge">
<title>7&#45;&gt;12</title>
<path fill="none" stroke="blue" stroke-dasharray="1,5" d="M494.5,-1626.39C498.33,-1620.79 502.81,-1615.56 508,-1611.42 530.43,-1593.52 552.09,-1615.84 570,-1593.42 642.26,-1502.94 520.61,-1156.61 601,-1073.28 630.14,-1043.07 752.63,-1076.21 789,-1055.28 853.15,-1018.35 856.13,-987.62 886,-919.9 914.92,-854.31 911.73,-770.07 905.19,-715.77"/>
<text text-anchor="middle" x="585.5" y="-1161.27" font-family="Times New Roman,serif" font-size="14.00">a</text>
</g>
<!-- 7&#45;&gt;&#45;1 -->
<g id="edge11" class="edge">
<title>7&#45;&gt;&#45;1</title>
<path fill="none" stroke="black" d="M459.5,-1622.67C443.3,-1572.87 421,-1491.13 421,-1418.54 421,-1418.54 421,-1418.54 421,-743.02 421,-594.85 290.44,-186.73 390,-77 411.26,-53.56 622.78,-45.32 710.84,-42.88"/>
<polygon fill="black" stroke="black" points="710.78,-46.36 720.68,-42.6 710.59,-39.36 710.78,-46.36"/>
</g>
<!-- 4&#45;&gt;6 -->
<g id="edge55" class="edge">
<title>4&#45;&gt;6</title>
<path fill="none" stroke="blue" stroke-dasharray="1,5" d="M258.24,-1548.46C224.16,-1648.76 155.4,-1894.28 222,-2084.56 258,-2187.41 365.21,-2268.78 422.29,-2306.21"/>
<text text-anchor="middle" x="198.5" y="-1918.98" font-family="Times New Roman,serif" font-size="14.00">s</text>
</g>
<!-- 4&#45;&gt;5 -->
<g id="edge54" class="edge">
<title>4&#45;&gt;5</title>
<path fill="none" stroke="blue" stroke-dasharray="1,5" d="M282.65,-1558.59C295.4,-1651.32 320.62,-1833.17 331,-1897.18 342.61,-1968.78 357.93,-2050.98 368.1,-2104.16"/>
<text text-anchor="middle" x="334.5" y="-1834.79" font-family="Times New Roman,serif" font-size="14.00">s</text>
</g>
<!-- 4&#45;&gt;3 -->
<g id="edge51" class="edge">
<title>4&#45;&gt;3</title>
<path fill="none" stroke="blue" stroke-dasharray="1,5" d="M254.37,-1463.12C248.61,-1451.23 242.87,-1437.85 239,-1425.04 235.74,-1414.23 233.28,-1402.44 231.44,-1391.04"/>
<text text-anchor="middle" x="242.5" y="-1413.84" font-family="Times New Roman,serif" font-size="14.00">a</text>
</g>
<!-- 4&#45;&gt;7 -->
<g id="edge52" class="edge">
<title>4&#45;&gt;7</title>
<path fill="none" stroke="blue" stroke-dasharray="1,5" d="M298.7,-1531.39C314.93,-1550.14 337.51,-1574.56 360,-1593.42 388.74,-1617.53 425.53,-1640.36 449.88,-1654.52"/>
<text text-anchor="middle" x="363.5" y="-1582.22" font-family="Times New Roman,serif" font-size="14.00">a</text>
</g>
<!-- 4&#45;&gt;11 -->
<g id="edge53" class="edge">
<title>4&#45;&gt;11</title>
<path fill="none" stroke="blue" stroke-dasharray="1,5" d="M302.27,-1504.69C358.8,-1510.32 488.71,-1531.72 552,-1611.42 573.34,-1638.29 596.25,-1726.54 609.57,-1784.5"/>
<text text-anchor="middle" x="598.5" y="-1666.41" font-family="Times New Roman,serif" font-size="14.00">a</text>
</g>
<!-- 4&#45;&gt;&#45;1 -->
<g id="edge12" class="edge">
<title>4&#45;&gt;&#45;1</title>
<path fill="none" stroke="black" d="M287.71,-1449.36C294.71,-1416.66 302,-1373.27 302,-1334.35 302,-1334.35 302,-1334.35 302,-153.69 302,-117.98 298.12,-99.32 326,-77 355.67,-53.25 612.3,-45.05 710.76,-42.76"/>
<polygon fill="black" stroke="black" points="710.77,-46.24 720.69,-42.51 710.61,-39.24 710.77,-46.24"/>
</g>
<!-- 8&#45;&gt;7 -->
<g id="edge57" class="edge">
<title>8&#45;&gt;7</title>
<path fill="none" stroke="blue" stroke-dasharray="1,5" d="M534.78,-206.45C507.02,-284.42 459,-438.9 459,-574.64 459,-1502.73 459,-1502.73 459,-1502.73 459,-1539.89 463.25,-1581.49 467.5,-1613.79"/>
<text text-anchor="middle" x="462.5" y="-908.7" font-family="Times New Roman,serif" font-size="14.00">s</text>
</g>
<!-- 8&#45;&gt;9 -->
<g id="edge58" class="edge">
<title>8&#45;&gt;9</title>
<path fill="none" stroke="blue" stroke-dasharray="1,5" d="M523.29,-192.76C508.13,-212.83 490.82,-238.72 480,-264.38 395.71,-464.4 383,-525.97 383,-743.02 383,-1418.54 383,-1418.54 383,-1418.54 383,-1616.91 434.32,-1848.57 459.88,-1951.65"/>
<text text-anchor="middle" x="386.5" y="-1077.08" font-family="Times New Roman,serif" font-size="14.00">s</text>
</g>
<!-- 8&#45;&gt;10 -->
<g id="edge56" class="edge">
<title>8&#45;&gt;10</title>
<path fill="none" stroke="blue" stroke-dasharray="1,5" d="M584.16,-192.95C600.91,-211.43 623.15,-232.67 647,-246.38 722.69,-289.88 824.66,-309.45 880.08,-317.35"/>
<text text-anchor="middle" x="650.5" y="-235.18" font-family="Times New Roman,serif" font-size="14.00">a</text>
</g>
<!-- 8&#45;&gt;12 -->
<g id="edge16" class="edge">
<title>8&#45;&gt;12</title>
<path fill="none" stroke="black" d="M566.66,-210.7C589.56,-299.28 645.56,-474.53 751,-583.14 781.12,-614.17 826.72,-635.06 858.72,-646.9"/>
<polygon fill="black" stroke="black" points="857.41,-650.51 868.01,-650.57 859.76,-643.92 857.41,-650.51"/>
</g>
<!-- 13 -->
<g id="node14" class="node">
<title>13</title>
<ellipse fill="none" stroke="black" cx="1160" cy="-828.21" rx="27" ry="58.88"/>
<text text-anchor="middle" x="1160" y="-854.51" font-family="Times New Roman,serif" font-size="14.00">N</text>
<text text-anchor="middle" x="1160" y="-839.51" font-family="Times New Roman,serif" font-size="14.00">leaf</text>
<text text-anchor="middle" x="1160" y="-824.51" font-family="Times New Roman,serif" font-size="14.00">1,7</text>
<text text-anchor="middle" x="1160" y="-809.51" font-family="Times New Roman,serif" font-size="14.00">0,0</text>
<text text-anchor="middle" x="1160" y="-794.51" font-family="Times New Roman,serif" font-size="14.00">&#45;1</text>
</g>
<!-- 8&#45;&gt;13 -->
<g id="edge17" class="edge">
<title>8&#45;&gt;13</title>
<path fill="none" stroke="black" d="M593.45,-165.61C640.09,-177.29 720.1,-197.15 789,-213.38 889.23,-236.99 930.92,-204.93 1015,-264.38 1172.95,-376.06 1175.65,-636.12 1167.04,-759.69"/>
<polygon fill="black" stroke="black" points="1163.49,-759.26 1166.24,-769.49 1170.47,-759.78 1163.49,-759.26"/>
</g>
<!-- 14 -->
<g id="node15" class="node">
<title>14</title>
<ellipse fill="none" stroke="black" cx="1045" cy="-491.45" rx="39.7" ry="58.88"/>
<text text-anchor="middle" x="1045" y="-517.75" font-family="Times New Roman,serif" font-size="14.00">O</text>
<text text-anchor="middle" x="1045" y="-502.75" font-family="Times New Roman,serif" font-size="14.00">internal</text>
<text text-anchor="middle" x="1045" y="-487.75" font-family="Times New Roman,serif" font-size="14.00">1,7</text>
<text text-anchor="middle" x="1045" y="-472.75" font-family="Times New Roman,serif" font-size="14.00">&#45;1</text>
<text text-anchor="middle" x="1045" y="-457.75" font-family="Times New Roman,serif" font-size="14.00">2,4</text>
</g>
<!-- 8&#45;&gt;14 -->
<g id="edge18" class="edge">
<title>8&#45;&gt;14</title>
<path fill="none" stroke="black" d="M591,-176.46C631.24,-197.95 698.1,-230.55 760,-246.38 805.16,-257.93 932.12,-235.87 969,-264.38 1016.79,-301.32 1034.79,-369.56 1041.44,-421.44"/>
<polygon fill="black" stroke="black" points="1038.06,-421.72 1042.69,-431.25 1045.02,-420.91 1038.06,-421.72"/>
</g>
<!-- 9&#45;&gt;6 -->
<g id="edge59" class="edge">
<title>9&#45;&gt;6</title>
<path fill="none" stroke="blue" stroke-dasharray="1,5" d="M467.18,-2065.14C465.93,-2077.46 464.77,-2090.43 464,-2102.56 460.37,-2159.56 459.25,-2224.8 458.96,-2270.49"/>
<text text-anchor="middle" x="467.5" y="-2157.55" font-family="Times New Roman,serif" font-size="14.00">a</text>
</g>
<!-- 9&#45;&gt;7 -->
<g id="edge61" class="edge">
<title>9&#45;&gt;7</title>
<path fill="none" stroke="blue" stroke-dasharray="1,5" d="M474.35,-1947.56C474.71,-1886.3 475.29,-1790.53 475.65,-1729.31"/>
<text text-anchor="middle" x="478.5" y="-1834.79" font-family="Times New Roman,serif" font-size="14.00">s</text>
</g>
<!-- 9&#45;&gt;8 -->
<g id="edge60" class="edge">
<title>9&#45;&gt;8</title>
<path fill="none" stroke="blue" stroke-dasharray="1,5" d="M448.63,-1961.1C438.44,-1941.85 427.19,-1918.84 419,-1897.18 369.67,-1766.7 357.7,-1731.79 340,-1593.42 320.64,-1442.08 343,-1402.72 343,-1250.16 343,-1250.16 343,-1250.16 343,-995.59 343,-668.31 258.78,-543.29 430,-264.38 451.94,-228.64 489.38,-198.21 517.39,-178.72"/>
<text text-anchor="middle" x="346.5" y="-1077.08" font-family="Times New Roman,serif" font-size="14.00">s</text>
</g>
<!-- 9&#45;&gt;10 -->
<g id="edge19" class="edge">
<title>9&#45;&gt;10</title>
<path fill="none" stroke="black" d="M511.76,-1988.11C550.51,-1968.86 611.41,-1935.68 657,-1897.18 777.95,-1795.03 832,-1745.23 832,-1586.92 832,-1586.92 832,-1586.92 832,-1332.35 832,-1007.36 760.67,-918.86 829,-601.14 834.23,-576.83 843.29,-573.43 852,-550.14 872.05,-496.54 890.46,-434.16 903.05,-388.52"/>
<polygon fill="black" stroke="black" points="906.62,-389.74 905.88,-379.17 899.86,-387.89 906.62,-389.74"/>
</g>
<!-- 9&#45;&gt;11 -->
<g id="edge20" class="edge">
<title>9&#45;&gt;11</title>
<path fill="none" stroke="black" d="M505.54,-1970.17C530.49,-1941.93 565.15,-1902.7 589.97,-1874.61"/>
<polygon fill="black" stroke="black" points="592.02,-1877.44 596.02,-1867.63 586.77,-1872.81 592.02,-1877.44"/>
</g>
<!-- 10&#45;&gt;2 -->
<g id="edge62" class="edge">
<title>10&#45;&gt;2</title>
<path fill="none" stroke="blue" stroke-dasharray="1,5" d="M930.5,-380.15C936.7,-427.59 939.23,-496.25 915,-550.14 901.33,-580.54 873.56,-570.69 860,-601.14 805.6,-723.29 851.67,-705.61 858,-751.52 876.88,-888.39 929.43,-1043.78 956.85,-1118.76"/>
<text text-anchor="middle" x="861.5" y="-740.32" font-family="Times New Roman,serif" font-size="14.00">a</text>
</g>
<!-- 10&#45;&gt;8 -->
<g id="edge63" class="edge">
<title>10&#45;&gt;8</title>
<path fill="none" stroke="blue" stroke-dasharray="1,5" d="M881,-311.19C836.8,-298.23 763.07,-274.75 703,-246.38 662.75,-227.37 619.59,-200.29 590.14,-180.67"/>
<text text-anchor="middle" x="706.5" y="-235.18" font-family="Times New Roman,serif" font-size="14.00">a</text>
</g>
<!-- 10&#45;&gt;11 -->
<g id="edge65" class="edge">
<title>10&#45;&gt;11</title>
<path fill="none" stroke="blue" stroke-dasharray="1,5" d="M887.9,-357.75C829.79,-418.97 711.83,-544.37 698,-568.14 563.73,-798.94 621,-896.95 621,-1163.97 621,-1671.11 621,-1671.11 621,-1671.11 621,-1707.07 621,-1747.4 621,-1779.35"/>
<text text-anchor="middle" x="622.5" y="-1077.08" font-family="Times New Roman,serif" font-size="14.00">s</text>
</g>
<!-- 10&#45;&gt;14 -->
<g id="edge64" class="edge">
<title>10&#45;&gt;14</title>
<path fill="none" stroke="blue" stroke-dasharray="1,5" d="M949.34,-363.12C969.34,-389.74 995.7,-424.84 1015.69,-451.44"/>
<text text-anchor="middle" x="989.5" y="-403.56" font-family="Times New Roman,serif" font-size="14.00">a</text>
</g>
<!-- 10&#45;&gt;15 -->
<g id="edge21" class="edge">
<title>10&#45;&gt;15</title>
<path fill="none" stroke="black" d="M957.62,-342.4C1003.85,-365.75 1078.14,-406.25 1094,-432.76 1145.93,-519.55 1114.2,-786.23 1124,-886.9 1125.34,-900.63 1127.04,-915.3 1128.79,-929.28"/>
<polygon fill="black" stroke="black" points="1125.4,-929.34 1130.14,-938.81 1132.34,-928.45 1125.4,-929.34"/>
</g>
<!-- 16 -->
<g id="node17" class="node">
<title>16</title>
<ellipse fill="none" stroke="black" cx="825" cy="-154.69" rx="27" ry="58.88"/>
<text text-anchor="middle" x="825" y="-180.99" font-family="Times New Roman,serif" font-size="14.00">Q</text>
<text text-anchor="middle" x="825" y="-165.99" font-family="Times New Roman,serif" font-size="14.00">leaf</text>
<text text-anchor="middle" x="825" y="-150.99" font-family="Times New Roman,serif" font-size="14.00">1,7</text>
<text text-anchor="middle" x="825" y="-135.99" font-family="Times New Roman,serif" font-size="14.00">2,4</text>
<text text-anchor="middle" x="825" y="-120.99" font-family="Times New Roman,serif" font-size="14.00">4,5</text>
</g>
<!-- 10&#45;&gt;16 -->
<g id="edge22" class="edge">
<title>10&#45;&gt;16</title>
<path fill="none" stroke="black" d="M894.54,-277.48C881.21,-254.13 864.9,-225.57 851.43,-201.97"/>
<polygon fill="black" stroke="black" points="854.03,-200.48 846.04,-193.53 847.95,-203.95 854.03,-200.48"/>
</g>
<!-- 11&#45;&gt;7 -->
<g id="edge66" class="edge">
<title>11&#45;&gt;7</title>
<path fill="none" stroke="blue" stroke-dasharray="1,5" d="M594.71,-1821.76C573.36,-1807.99 543.53,-1786.39 523,-1761.8 511.41,-1747.91 501.59,-1730.69 493.98,-1715"/>
<text text-anchor="middle" x="526.5" y="-1750.6" font-family="Times New Roman,serif" font-size="14.00">a</text>
</g>
<!-- 11&#45;&gt;4 -->
<g id="edge67" class="edge">
<title>11&#45;&gt;4</title>
<path fill="none" stroke="blue" stroke-dasharray="1,5" d="M598.08,-1805.72C576.12,-1775.17 545.99,-1733.02 544,-1728.8 520.91,-1679.9 546.98,-1652.65 512,-1611.42 456.07,-1545.48 351.67,-1517.43 302.26,-1507.44"/>
<text text-anchor="middle" x="547.5" y="-1666.41" font-family="Times New Roman,serif" font-size="14.00">a</text>
</g>
<!-- 11&#45;&gt;10 -->
<g id="edge69" class="edge">
<title>11&#45;&gt;10</title>
<path fill="none" stroke="blue" stroke-dasharray="1,5" d="M637.45,-1791.16C647.72,-1758.13 659,-1712.44 659,-1671.11 659,-1671.11 659,-1671.11 659,-1248.16 659,-1095.43 644.24,-1054.49 675,-904.9 704.04,-763.66 732.8,-733.94 789,-601.14 823.84,-518.82 869.37,-425.22 896.55,-370.6"/>
<text text-anchor="middle" x="658.5" y="-1077.08" font-family="Times New Roman,serif" font-size="14.00">s</text>
</g>
<!-- 11&#45;&gt;16 -->
<g id="edge68" class="edge">
<title>11&#45;&gt;16</title>
<path fill="none" stroke="blue" stroke-dasharray="1,5" d="M647.31,-1821.79C667.64,-1808.34 694.93,-1787.14 711,-1761.8 733.33,-1726.59 735,-1712.8 735,-1671.11 735,-1671.11 735,-1671.11 735,-1416.54 735,-1340.88 740.68,-800.31 700,-736.52 691.43,-723.09 679.05,-730.88 669,-718.52 619.9,-658.15 624.53,-627.88 621,-550.14 614.58,-408.6 543.32,-347.15 625,-231.38 664.92,-174.8 752.82,-160.49 797.61,-156.89"/>
<text text-anchor="middle" x="735.5" y="-992.89" font-family="Times New Roman,serif" font-size="14.00">a</text>
</g>
<!-- 11&#45;&gt;&#45;1 -->
<g id="edge23" class="edge">
<title>11&#45;&gt;&#45;1</title>
<path fill="none" stroke="black" d="M641.75,-1800.16C648.2,-1788.06 655.15,-1774.48 661,-1761.8 679.16,-1722.42 697,-1714.47 697,-1671.11 697,-1671.11 697,-1671.11 697,-1248.16 697,-1095.29 701.32,-1055.49 675,-904.9 660.15,-819.94 643.32,-801.82 621,-718.52 581.1,-569.62 571.28,-532.27 538,-381.76 510.4,-256.93 424.96,-195.69 505,-96 530.44,-64.31 649.32,-50.08 711.25,-44.73"/>
<polygon fill="black" stroke="black" points="711.44,-48.14 721.12,-43.83 710.86,-41.17 711.44,-48.14"/>
</g>
<!-- 12&#45;&gt;7 -->
<g id="edge70" class="edge">
<title>12&#45;&gt;7</title>
<path fill="none" stroke="blue" stroke-dasharray="1,5" d="M882.58,-711.28C877.97,-724.81 872.13,-739.11 865,-751.52 761.49,-931.52 630.36,-910.56 561,-1106.28 524.82,-1208.37 603.94,-1502.55 545,-1593.42 535.05,-1608.76 521.27,-1598.84 508,-1611.42 503.1,-1616.07 498.75,-1621.64 494.97,-1627.46"/>
<text text-anchor="middle" x="564.5" y="-1161.27" font-family="Times New Roman,serif" font-size="14.00">a</text>
</g>
<!-- 12&#45;&gt;13 -->
<g id="edge72" class="edge">
<title>12&#45;&gt;13</title>
<path fill="none" stroke="blue" stroke-dasharray="1,5" d="M921.28,-682.37C944.55,-701.68 980.43,-730.16 1014,-751.52 1053.98,-776.97 1103.5,-801.24 1133.38,-815.16"/>
<text text-anchor="middle" x="1017.5" y="-740.32" font-family="Times New Roman,serif" font-size="14.00">s</text>
</g>
<!-- 12&#45;&gt;14 -->
<g id="edge73" class="edge">
<title>12&#45;&gt;14</title>
<path fill="none" stroke="blue" stroke-dasharray="1,5" d="M916.68,-621.77C927.1,-604.61 940.56,-584.46 955,-568.14 971.23,-549.79 992.02,-532.01 1009.53,-518.3"/>
<text text-anchor="middle" x="958.5" y="-571.94" font-family="Times New Roman,serif" font-size="14.00">s</text>
</g>
<!-- 12&#45;&gt;16 -->
<g id="edge71" class="edge">
<title>12&#45;&gt;16</title>
<path fill="none" stroke="blue" stroke-dasharray="1,5" d="M888.13,-603.06C874.46,-506.22 846.5,-308.07 832.85,-211.32"/>
<text text-anchor="middle" x="864.5" y="-403.56" font-family="Times New Roman,serif" font-size="14.00">a</text>
</g>
<!-- 12&#45;&gt;&#45;1 -->
<g id="edge24" class="edge">
<title>12&#45;&gt;&#45;1</title>
<path fill="none" stroke="black" d="M871.06,-635.91C829.12,-594.73 749,-503.58 749,-408.26 749,-408.26 749,-408.26 749,-153.69 749,-125.29 749,-92.83 749,-70.24"/>
<polygon fill="black" stroke="black" points="752.5,-70.41 749,-60.41 745.5,-70.41 752.5,-70.41"/>
</g>
<!-- 13&#45;&gt;12 -->
<g id="edge75" class="edge">
<title>13&#45;&gt;12</title>
<path fill="none" stroke="blue" stroke-dasharray="1,5" d="M1133.85,-810.17C1105.62,-791.83 1059.28,-761.86 1019,-736.52 985.68,-715.56 946.97,-691.84 922.01,-676.63"/>
<text text-anchor="middle" x="1045.5" y="-740.32" font-family="Times New Roman,serif" font-size="14.00">s</text>
</g>
<!-- 13&#45;&gt;14 -->
<g id="edge76" class="edge">
<title>13&#45;&gt;14</title>
<path fill="none" stroke="blue" stroke-dasharray="1,5" d="M1133.85,-811.56C1106.28,-793.27 1064.7,-760.16 1049,-718.52 1028.29,-663.61 1030.41,-595.73 1035.75,-548.76"/>
<text text-anchor="middle" x="1052.5" y="-656.13" font-family="Times New Roman,serif" font-size="14.00">s</text>
</g>
<!-- 13&#45;&gt;15 -->
<g id="edge74" class="edge">
<title>13&#45;&gt;15</title>
<path fill="none" stroke="blue" stroke-dasharray="1,5" d="M1152.6,-885.21C1150.27,-902.78 1147.71,-922.16 1145.39,-939.72"/>
<text text-anchor="middle" x="1152.5" y="-908.7" font-family="Times New Roman,serif" font-size="14.00">a</text>
</g>
<!-- 13&#45;&gt;&#45;1 -->
<g id="edge25" class="edge">
<title>13&#45;&gt;&#45;1</title>
<path fill="none" stroke="black" d="M1170.83,-773.91C1172.28,-766.4 1173.71,-758.77 1175,-751.52 1189.47,-670.28 1175.27,-645.49 1204,-568.14 1233.1,-489.79 1303,-491.84 1303,-408.26 1303,-408.26 1303,-408.26 1303,-153.69 1303,-48.32 912.99,-41.14 787.44,-41.56"/>
<polygon fill="black" stroke="black" points="787.45,-38.06 777.47,-41.62 787.49,-45.06 787.45,-38.06"/>
</g>
<!-- 14&#45;&gt;10 -->
<g id="edge77" class="edge">
<title>14&#45;&gt;10</title>
<path fill="none" stroke="blue" stroke-dasharray="1,5" d="M1022.95,-442.19C1015.55,-427.98 1006.69,-412.76 997,-399.76 984.57,-383.07 968.44,-366.63 954.16,-353.35"/>
<text text-anchor="middle" x="1009.5" y="-403.56" font-family="Times New Roman,serif" font-size="14.00">a</text>
</g>
<!-- 14&#45;&gt;12 -->
<g id="edge79" class="edge">
<title>14&#45;&gt;12</title>
<path fill="none" stroke="blue" stroke-dasharray="1,5" d="M1013.33,-527.82C985.39,-559.02 945.28,-603.8 919.94,-632.1"/>
<text text-anchor="middle" x="977.5" y="-571.94" font-family="Times New Roman,serif" font-size="14.00">s</text>
</g>
<!-- 14&#45;&gt;13 -->
<g id="edge78" class="edge">
<title>14&#45;&gt;13</title>
<path fill="none" stroke="blue" stroke-dasharray="1,5" d="M1062.89,-544.53C1085.08,-609.11 1122.56,-718.23 1143.89,-780.31"/>
<text text-anchor="middle" x="1124.5" y="-656.13" font-family="Times New Roman,serif" font-size="14.00">s</text>
</g>
<!-- 14&#45;&gt;15 -->
<g id="edge26" class="edge">
<title>14&#45;&gt;15</title>
<path fill="none" stroke="black" d="M1022.13,-539.68C999.87,-591.93 972.11,-678.43 992,-751.52 1014.07,-832.59 1071.3,-913.71 1107.2,-959.01"/>
<polygon fill="black" stroke="black" points="1105.09,-960.97 1114.08,-966.58 1110.55,-956.59 1105.09,-960.97"/>
</g>
<!-- 14&#45;&gt;16 -->
<g id="edge27" class="edge">
<title>14&#45;&gt;16</title>
<path fill="none" stroke="black" d="M1059.52,-436.15C1060.95,-429 1062.18,-421.74 1063,-414.76 1069.84,-356.44 1054.78,-292.82 1033,-264.38 990.02,-208.27 909.77,-178.29 862.5,-164.8"/>
<polygon fill="black" stroke="black" points="863.66,-161.21 853.09,-161.94 861.81,-167.96 863.66,-161.21"/>
</g>
<!-- 15&#45;&gt;2 -->
<g id="edge80" class="edge">
<title>15&#45;&gt;2</title>
<path fill="none" stroke="blue" stroke-dasharray="1,5" d="M1112.23,-1014.45C1091.46,-1028.73 1062.17,-1050.46 1040,-1073.28 1023.44,-1090.31 1007.68,-1111.71 995.71,-1129.44"/>
<text text-anchor="middle" x="1043.5" y="-1077.08" font-family="Times New Roman,serif" font-size="14.00">a</text>
</g>
<!-- 15&#45;&gt;13 -->
<g id="edge81" class="edge">
<title>15&#45;&gt;13</title>
<path fill="none" stroke="blue" stroke-dasharray="1,5" d="M1138.09,-937.37C1138.63,-926.54 1139.53,-915.35 1141,-904.9 1142.19,-896.45 1143.94,-887.57 1145.91,-878.99"/>
<text text-anchor="middle" x="1144.5" y="-908.7" font-family="Times New Roman,serif" font-size="14.00">a</text>
</g>
<!-- 15&#45;&gt;16 -->
<g id="edge82" class="edge">
<title>15&#45;&gt;16</title>
<path fill="none" stroke="blue" stroke-dasharray="1,5" d="M1160.32,-962.94C1173.26,-942.15 1188.44,-914.1 1196,-886.9 1250.18,-691.84 1227.45,-623.98 1161,-432.76 1125.3,-330.03 1115.93,-286.2 1022,-231.38 965.2,-198.23 891.2,-174.35 852.04,-163.05"/>
<text text-anchor="middle" x="1212.5" y="-571.94" font-family="Times New Roman,serif" font-size="14.00">s</text>
</g>
<!-- 15&#45;&gt;&#45;1 -->
<g id="edge28" class="edge">
<title>15&#45;&gt;&#45;1</title>
<path fill="none" stroke="black" d="M1164.24,-979.02C1191.38,-960.29 1232.46,-927.11 1252,-886.9 1346.58,-692.29 1341,-624.63 1341,-408.26 1341,-408.26 1341,-408.26 1341,-153.69 1341,-125.92 1338.65,-113.4 1317,-96 1275.77,-62.86 907.88,-47.43 787.17,-43.23"/>
<polygon fill="black" stroke="black" points="787.4,-39.7 777.28,-42.85 787.16,-46.69 787.4,-39.7"/>
</g>
<!-- 16&#45;&gt;11 -->
<g id="edge84" class="edge">
<title>16&#45;&gt;11</title>
<path fill="none" stroke="blue" stroke-dasharray="1,5" d="M807.06,-199.36C788.14,-247.53 759.14,-327.78 745,-399.76 729.26,-479.9 729.29,-501.55 733,-583.14 746.35,-876.72 778.81,-948.11 793,-1241.66 796.75,-1319.29 794,-1338.81 794,-1416.54 794,-1671.11 794,-1671.11 794,-1671.11 794,-1751.32 696.18,-1804.98 647.65,-1826.66"/>
<text text-anchor="middle" x="782.5" y="-992.89" font-family="Times New Roman,serif" font-size="14.00">a</text>
</g>
<!-- 16&#45;&gt;12 -->
<g id="edge83" class="edge">
<title>16&#45;&gt;12</title>
<path fill="none" stroke="blue" stroke-dasharray="1,5" d="M825.13,-213.97C826.45,-291.64 832.83,-432.94 860,-550.14 864.92,-571.34 872.21,-594.29 878.95,-613.62"/>
<text text-anchor="middle" x="840.5" y="-403.56" font-family="Times New Roman,serif" font-size="14.00">a</text>
</g>
<!-- 16&#45;&gt;15 -->
<g id="edge85" class="edge">
<title>16&#45;&gt;15</title>
<path fill="none" stroke="blue" stroke-dasharray="1,5" d="M852.39,-158.08C910.07,-164.57 1044.95,-187.53 1121,-264.38 1178.38,-322.35 1168.25,-355.36 1194,-432.76 1257.84,-624.64 1291.88,-697.13 1222,-886.9 1209.64,-920.47 1182.92,-952.01 1162.92,-972.38"/>
<text text-anchor="middle" x="1244.5" y="-571.94" font-family="Times New Roman,serif" font-size="14.00">s</text>
</g>
<!-- 16&#45;&gt;&#45;1 -->
<g id="edge29" class="edge">
<title>16&#45;&gt;&#45;1</title>
<path fill="none" stroke="black" d="M802.61,-120.78C790.82,-103.46 776.61,-82.58 765.78,-66.67"/>
<polygon fill="black" stroke="black" points="768.36,-65.23 759.84,-58.94 762.58,-69.17 768.36,-65.23"/>
</g>
</g>
</svg>
